<?xml version="1.0" standalone="no"?>
<!DOCTYPE svg PUBLIC "-//W3C//DTD SVG 20010904//EN"
 "http://www.w3.org/TR/2001/REC-SVG-20010904/DTD/svg10.dtd">
<svg version="1.0" xmlns="http://www.w3.org/2000/svg"
 width="50.000000pt" height="50.000000pt" viewBox="0 0 50.000000 50.000000"
 preserveAspectRatio="xMidYMid meet">

<g transform="translate(0.000000,50.000000) scale(0.100000,-0.100000)"
fill="#000000" stroke="none">
<path d="M242 356 c-106 -45 -198 -88 -204 -94 -16 -16 3 -36 52 -52 50 -16
54 -21 74 -93 17 -58 33 -70 56 -41 31 37 48 37 94 -1 50 -41 73 -44 86 -12
15 38 72 356 65 367 -3 5 -12 10 -18 10 -7 -1 -99 -38 -205 -84z m54 -90 c-42
-47 -83 -102 -90 -123 -14 -38 -14 -38 -24 -13 -27 70 -30 64 79 145 57 41
105 75 107 75 3 0 -30 -38 -72 -84z"/>
</g>
</svg>
