<?xml version="1.0" standalone="no"?>
<!DOCTYPE svg PUBLIC "-//W3C//DTD SVG 20010904//EN"
 "http://www.w3.org/TR/2001/REC-SVG-20010904/DTD/svg10.dtd">
<svg version="1.0" xmlns="http://www.w3.org/2000/svg"
 width="30.000000pt" height="30.000000pt" viewBox="0 0 30.000000 30.000000"
 preserveAspectRatio="xMidYMid meet">

<g transform="translate(0.000000,30.000000) scale(0.100000,-0.100000)"
fill="#000000" stroke="none">
<path d="M110 263 c-56 -22 -91 -95 -73 -150 6 -16 7 -39 3 -53 l-7 -25 83 0
c81 0 85 1 116 33 28 28 33 39 33 82 0 42 -5 54 -31 81 -31 30 -90 46 -124 32z
m14 -95 c-6 -20 35 -53 49 -39 12 12 37 3 37 -14 0 -38 -83 -10 -109 37 -13
22 -13 29 -1 43 10 13 15 13 21 3 5 -7 6 -20 3 -30z"/>
</g>
</svg>
